<?xml version="1.0" encoding="utf-8"?>
<!-- Generator: Adobe Illustrator 27.5.0, SVG Export Plug-In . SVG Version: 6.00 Build 0)  -->
<svg version="1.1" id="Capa_2" xmlns="http://www.w3.org/2000/svg" xmlns:xlink="http://www.w3.org/1999/xlink" x="0px" y="0px"
	 viewBox="0 0 2122 2122" style="enable-background:new 0 0 2122 2122;" xml:space="preserve">
<path style="fill:#ED8118;" d="M1075.139,1772.823v136.189c43.045-0.745,85.383-5.006,126.696-12.583v-136.192
	C1160.642,1767.764,1118.318,1772.036,1075.139,1772.823z"/>
<path style="fill:#ED8118;" d="M283.235,1060.908c-13.282,151.93,17.967,297.712,83.098,424.275v-135.933
	C321.165,1261.5,292.187,1164.073,283.235,1060.908z"/>
<path style="fill:#ED8118;" d="M636.747,1647.905v136.23c36.028,23.344,74.193,43.803,114.18,61.077v-136.141
	C711.032,1691.802,672.859,1671.313,636.747,1647.905z"/>
<path style="fill:#ED8118;" d="M1649.808,1504.409v136.212c31.516-36.207,59.764-75.442,84.302-117.251v-136.263
	C1709.61,1428.836,1681.375,1468.105,1649.808,1504.409z"/>
<path style="fill:#ED8118;" d="M1765.223,1328.596v136.17c37.82-79.276,62.831-166.314,72.035-258.753
	c4.92-49.419,5.061-98.205,0.901-145.938C1829.98,1155.522,1804.655,1246.067,1765.223,1328.596z"/>
<path style="fill:#ED8118;" d="M1523.764,1620.765v136.092c34.615-25.536,67.091-53.906,97.089-84.793V1535.88
	C1590.904,1566.753,1558.437,1595.161,1523.764,1620.765z"/>
<path style="fill:#ED8118;" d="M510.703,1546.272v136.134c30.005,29.837,62.446,57.315,97.089,82.041v-136.218
	C573.222,1603.556,540.758,1576.126,510.703,1546.272z"/>
<path style="fill:#ED8118;" d="M1232.612,1753.957v136.172c40.904-9.231,80.69-21.715,119.062-37.171v-136.066
	C1313.393,1732.287,1273.616,1744.736,1232.612,1753.957z"/>
<path style="fill:#ED8118;" d="M929.721,1762.011v136.035c17.662,2.987,35.528,5.443,53.62,7.245
	c21.074,2.098,42.029,3.306,62.843,3.715v-136.183C1006.569,1772.101,967.682,1768.425,929.721,1762.011z"/>
<path style="fill:#ED8118;" d="M1380.629,1704.594v136.066c39.875-17.965,78.062-39.202,114.18-63.409v-136.082
	C1458.76,1665.346,1420.593,1686.608,1380.629,1704.594z"/>
<path style="fill:#ED8118;" d="M779.882,1720.921v136.105c38.223,14.71,77.985,26.535,119.062,35.183v-136.023
	C857.979,1747.553,818.203,1735.704,779.882,1720.921z"/>
<path style="fill:#ED8118;" d="M397.447,1404.041v135.996c24.727,39.803,52.93,77.327,84.302,112.048v-136.141
	C450.434,1481.328,422.212,1443.873,397.447,1404.041z"/>
<path style="fill:#C54B17;" d="M481.748,1515.944v136.141c9.367,10.367,19.04,20.462,28.955,30.321v-136.134
	C500.786,1536.421,491.128,1526.313,481.748,1515.944z"/>
<path style="fill:#C54B17;" d="M366.333,1349.249v135.933c9.636,18.724,20.03,37.014,31.113,54.855v-135.996
	C386.376,1386.236,375.972,1367.974,366.333,1349.249z"/>
<path style="fill:#C54B17;" d="M607.792,1628.229v136.218c9.489,6.772,19.145,13.333,28.955,19.688v-136.23
	C626.946,1641.552,617.283,1635.004,607.792,1628.229z"/>
<path style="fill:#C54B17;" d="M1060.66,1773.006c-4.84,0-9.657-0.095-14.476-0.183v136.183c9.687,0.191,19.335,0.173,28.955,0.006
	v-136.189C1070.319,1772.91,1065.501,1773.006,1060.66,1773.006z"/>
<path style="fill:#C54B17;" d="M750.927,1709.071v136.141c9.548,4.124,19.202,8.059,28.955,11.813v-136.105
	C770.134,1717.16,760.482,1713.208,750.927,1709.071z"/>
<path style="fill:#C54B17;" d="M898.944,1756.186v136.023c10.18,2.144,20.44,4.088,30.777,5.837v-136.035
	C919.392,1760.266,909.13,1758.332,898.944,1756.186z"/>
<path style="fill:#C54B17;" d="M1620.853,1535.88v136.184c9.922-10.216,19.591-20.686,28.955-31.443v-136.212
	C1640.45,1515.171,1630.778,1525.648,1620.853,1535.88z"/>
<path style="fill:#C54B17;" d="M1734.11,1387.107v136.263c11.159-19.014,21.549-38.557,31.113-58.604v-136.17
	C1755.67,1348.59,1745.27,1368.098,1734.11,1387.107z"/>
<path style="fill:#C54B17;" d="M1494.809,1641.169v136.082c9.811-6.575,19.457-13.387,28.955-20.394v-136.092
	C1514.271,1627.774,1504.624,1634.586,1494.809,1641.169z"/>
<path style="fill:#C54B17;" d="M1351.674,1716.892v136.066c9.739-3.923,19.405-7.995,28.955-12.298v-136.066
	C1371.083,1708.891,1361.42,1712.973,1351.674,1716.892z"/>
<path style="fill:#C54B17;" d="M1201.835,1760.237v136.192c10.325-1.894,20.584-3.999,30.777-6.3v-136.172
	C1222.426,1756.248,1212.168,1758.349,1201.835,1760.237z"/>
<path style="fill:#F7A531;" d="M397.447,1404.041c24.765,39.832,52.987,77.287,84.302,111.903
	c9.379,10.368,19.038,20.477,28.955,30.328c30.055,29.853,62.519,57.284,97.089,81.957c9.491,6.774,19.154,13.323,28.955,19.676
	c36.112,23.408,74.285,43.896,114.18,61.166c9.555,4.136,19.207,8.089,28.955,11.849c38.322,14.783,78.097,26.632,119.062,35.265
	c10.186,2.146,20.448,4.081,30.777,5.825c37.962,6.414,76.849,10.09,116.463,10.812c4.819,0.088,9.636,0.183,14.476,0.183
	c4.841,0,9.659-0.095,14.479-0.183c43.179-0.786,85.503-5.059,126.696-12.586c10.333-1.888,20.591-3.989,30.777-6.28
	c41.004-9.221,80.781-21.67,119.062-37.066c9.746-3.919,19.409-8.001,28.955-12.297c39.964-17.986,78.131-39.248,114.18-63.426
	c9.815-6.583,19.462-13.395,28.955-20.404c34.673-25.604,67.14-54.012,97.089-84.884c9.925-10.232,19.597-20.709,28.955-31.471
	c31.568-36.305,59.802-75.573,84.302-117.302c11.16-19.01,21.56-38.517,31.113-58.511c39.432-82.53,64.757-173.074,72.937-268.522
	c1.907-22.254,2.938-44.758,2.938-67.506c0-431.023-349.414-780.437-780.438-780.437c-431.023,0-780.437,349.413-780.437,780.437
	c0,23.032,1.058,45.814,3.012,68.339c8.952,103.165,37.93,200.592,83.098,288.341
	C375.972,1367.974,386.376,1386.236,397.447,1404.041z"/>
<path style="fill:#F39117;" d="M565.099,992.569c0,319.595,243.639,582.28,555.313,612.463
	c311.811-30.05,555.607-292.771,555.607-612.463c0-319.692-243.796-582.413-555.607-612.463
	C808.737,410.288,565.099,672.974,565.099,992.569z"/>
<path style="fill:#EE7016;" d="M1060.66,1607.928c5.179,0,10.341-0.069,15.489-0.196c1.849-0.045,3.686-0.138,5.531-0.2
	c3.289-0.11,6.579-0.212,9.855-0.374c2.21-0.109,4.407-0.266,6.611-0.399c2.893-0.174,5.789-0.336,8.672-0.55
	c2.347-0.174,4.681-0.393,7.021-0.593c2.24-0.192,4.488-0.352,6.72-0.567l-0.147-0.016
	c-311.675-30.183-555.313-292.868-555.313-612.463c0-319.594,243.639-582.28,555.313-612.463l0.147-0.016
	c-2.233-0.216-4.481-0.376-6.72-0.568c-2.34-0.201-4.674-0.419-7.021-0.593c-2.9-0.216-5.813-0.378-8.723-0.553
	c-2.182-0.131-4.358-0.287-6.547-0.395c-3.302-0.163-6.618-0.266-9.933-0.378c-1.823-0.061-3.638-0.153-5.465-0.198
	c-5.148-0.127-10.311-0.196-15.49-0.196c-339.853,0-615.359,275.505-615.359,615.359S720.807,1607.928,1060.66,1607.928z"/>
<path style="fill:#EE7016;" d="M1400.082,960.481l-120.922,114.124c-11.063,10.441-16.281,25.659-13.951,40.692l25.46,164.311
	c5.866,37.858-34.225,66.008-67.842,47.637l-145.905-79.737c-13.349-7.296-29.433-7.555-43.012-0.694l-148.401,74.989
	c-1.647,0.833-3.313,1.463-4.978,2.083c5.159,28.809,37.436,47.527,66.287,32.948l148.401-74.989
	c13.578-6.861,29.662-6.601,43.012,0.694l145.905,79.737c33.617,18.372,73.708-9.779,67.841-47.637l-25.46-164.311
	c-2.329-15.033,2.888-30.251,13.951-40.692l120.922-114.124c27.861-26.294,13.476-73.122-24.341-79.242l-24.91-4.031
	C1417.473,928.236,1414.33,947.034,1400.082,960.481z"/>
<path style="fill:#EE7016;" d="M1211.604,854.678l24.442,3.955l-68.693-145.037c-10.74-22.678-35.433-30.74-56.13-24.097
	l65.993,139.336C1183.727,842.584,1196.587,852.248,1211.604,854.678z"/>
<path style="fill:#FDC74E;" d="M720.179,949.512l117.177,117.965c10.721,10.793,15.444,26.17,12.631,41.12l-30.747,163.404
	c-6.743,35.834,28.405,64.13,61.291,51.883c1.665-0.62,3.331-1.25,4.978-2.083l148.401-74.989
	c13.578-6.861,29.662-6.602,43.012,0.694l145.905,79.737c33.617,18.372,73.707-9.779,67.842-47.637l-25.46-164.311
	c-2.329-15.033,2.888-30.25,13.951-40.692l120.922-114.124c14.249-13.447,17.391-32.245,12.058-48.241
	c-5.095-15.282-17.922-28.01-36.399-31l-139.695-22.606l-24.442-3.955c-15.017-2.43-27.877-12.094-34.389-25.843L1111.222,689.5
	l-5.179-10.934c-16.398-34.623-65.379-35.413-82.886-1.338l-75.981,147.896c-6.952,13.531-20.117,22.775-35.206,24.72
	l-164.908,21.252C709.068,875.993,693.181,922.332,720.179,949.512z"/>
<path style="fill:#FFFFFF;" d="M1290.174,685.719c0.556,0.614,1.112,1.227,1.67,1.839c27.336,30.006,57.2,58.959,93.95,76.195
	c12.544,5.883,26.023,10.372,39.877,10.534c13.854,0.162,28.176-4.427,37.713-14.478c13.411-14.134,14.973-35.819,12.257-55.113
	c-4.783-33.982-20.23-65.54-37.852-94.987c-24.783-41.414-54.845-80.522-93.801-109.014c-34.83-25.474-106.656-53.608-127.712,3.135
	c-5.131,13.828-5.263,29.066-3.248,43.676C1220.347,600.591,1254.147,645.934,1290.174,685.719z"/>
<path style="fill:#FFFFFF;" d="M1517.552,936.939l0.841,1.094c13.764,17.853,28.931,35.218,48.223,46.309
	c6.585,3.786,13.724,6.83,21.213,7.471c7.489,0.641,15.393-1.354,20.895-6.59c7.737-7.364,9.322-19.419,8.511-30.307
	c-1.429-19.178-8.708-37.425-17.236-54.579c-11.994-24.126-26.922-47.173-47.024-64.642c-17.972-15.618-55.867-34.194-69.193-3.325
	c-3.248,7.522-3.839,16.031-3.247,24.275C1482.683,886.597,1499.421,913.276,1517.552,936.939z"/>
</svg>
