<svg width="100" height="100" viewBox="0 0 100 100" xmlns="http://www.w3.org/2000/svg">
  <defs>
    <!-- Radial gradient for 3D surface effect -->
    <radialGradient id="surfaceGradient" cx="30%" cy="30%" r="70%">
      <stop offset="0%" style="stop-color:#f5f5f5;stop-opacity:1" />
      <stop offset="60%" style="stop-color:#e0e0e0;stop-opacity:1" />
      <stop offset="100%" style="stop-color:#c0c0c0;stop-opacity:1" />
    </radialGradient>
    
    <!-- Inner bevel gradient -->
    <linearGradient id="bevelGradient" x1="0%" y1="0%" x2="100%" y2="100%">
      <stop offset="0%" style="stop-color:#ffffff;stop-opacity:0.8" />
      <stop offset="50%" style="stop-color:#d0d0d0;stop-opacity:0.3" />
      <stop offset="100%" style="stop-color:#a0a0a0;stop-opacity:0.6" />
    </linearGradient>
    
    <!-- Shadow filter -->
    <filter id="innerShadow" x="-50%" y="-50%" width="200%" height="200%">
      <feGaussianBlur in="SourceGraphic" stdDeviation="2"/>
      <feOffset dx="1" dy="1" result="offset"/>
    </filter>
    
    <filter id="dropShadow" x="-20%" y="-20%" width="140%" height="140%">
      <feDropShadow dx="2" dy="2" stdDeviation="2" flood-opacity="0.2"/>
    </filter>
  </defs>
  
  <!-- Drop shadow -->
  <rect x="12" y="12" width="76" height="76" rx="8" ry="8" fill="rgba(0,0,0,0.1)" filter="url(#dropShadow)"/>
  
  <!-- Main tile surface -->
  <rect x="10" y="10" width="80" height="80" rx="8" ry="8" fill="url(#surfaceGradient)" stroke="#b0b0b0" stroke-width="1"/>
  
  <!-- Inner bevel border for 3D effect -->
  <rect x="12" y="12" width="76" height="76" rx="6" ry="6" fill="none" stroke="url(#bevelGradient)" stroke-width="2"/>
  
  <!-- Highlight edge (top-left) -->
  <path d="M 18 12 L 82 12 Q 88 12 88 18 L 88 25 Q 82 19 82 12 L 18 12 Q 12 12 12 18 L 19 18 Q 18 12 18 12" fill="rgba(255,255,255,0.4)"/>
  <path d="M 12 18 L 12 82 Q 12 88 18 88 L 25 88 Q 19 82 12 82 L 12 18 Q 12 12 18 12 L 18 19 Q 12 18 12 18" fill="rgba(255,255,255,0.3)"/>
  
  <!-- Shadow edge (bottom-right) -->
  <path d="M 82 88 L 18 88 Q 12 88 12 82 L 12 75 Q 18 81 18 88 L 82 88 Q 88 88 88 82 L 81 82 Q 82 88 82 88" fill="rgba(0,0,0,0.15)"/>
  <path d="M 88 82 L 88 18 Q 88 12 82 12 L 75 12 Q 81 18 88 18 L 88 82 Q 88 88 82 88 L 82 81 Q 88 82 88 82" fill="rgba(0,0,0,0.12)"/>
  
  <!-- Optional center detail -->
  <circle cx="50" cy="50" r="12" fill="none" stroke="rgba(150,150,150,0.4)" stroke-width="1"/>
  <circle cx="50" cy="50" r="6" fill="rgba(180,180,180,0.5)"/>
</svg>